<svg width="76" height="69" viewBox="0 0 76 69" fill="none" xmlns="http://www.w3.org/2000/svg">
<path fill-rule="evenodd" clip-rule="evenodd" d="M74.0555 5.71808C72.8339 4.59869 70.9362 4.68149 69.8168 5.90302C64.6654 11.5245 61.414 13.7273 57.2954 13.8625C52.7793 14.0107 46.5849 11.7344 35.494 5.83607C25.3511 0.44195 17.4274 1.12393 11.5643 4.0709C6.59377 6.56918 3.43003 10.5651 1.86504 12.5417L1.86504 12.5417L1.83965 12.5738C1.6444 12.8204 1.48305 13.0241 1.34455 13.1927C0.292933 14.4731 0.478342 16.3635 1.75868 17.4151C3.03901 18.4667 4.92944 18.2813 5.98106 17.001C6.15984 16.7833 6.3531 16.5406 6.55365 16.2888L6.55843 16.2828C8.1409 14.2956 10.5464 11.2978 14.2588 9.43183C18.2082 7.44677 24.0716 6.55721 32.6767 11.1335C43.5809 16.9325 51.1427 20.0676 57.4922 19.8592C64.2396 19.6378 68.9632 15.7153 74.2404 9.95669C75.3598 8.73517 75.277 6.83748 74.0555 5.71808Z" fill="black"/>
<path fill-rule="evenodd" clip-rule="evenodd" d="M74.0555 51.3101C72.8339 50.1907 70.9362 50.2735 69.8168 51.4951C64.6654 57.1165 61.414 59.3194 57.2954 59.4545C52.7793 59.6027 46.5849 57.3264 35.494 51.4281C25.3511 46.034 17.4274 46.716 11.5643 49.6629C6.59377 52.1612 3.43003 56.1571 1.86504 58.1338L1.86504 58.1338L1.83965 58.1659C1.6444 58.4124 1.48305 58.6161 1.34455 58.7848C0.292934 60.0651 0.478342 61.9555 1.75868 63.0072C3.03901 64.0588 4.92944 63.8734 5.98106 62.593C6.15984 62.3754 6.3531 62.1327 6.55365 61.8808L6.55843 61.8748C8.14091 59.8876 10.5464 56.8898 14.2588 55.0239C18.2082 53.0388 24.0716 52.1493 32.6767 56.7256C43.5809 62.5246 51.1427 65.6597 57.4922 65.4513C64.2396 65.2299 68.9632 61.3074 74.2404 55.5487C75.3598 54.3272 75.277 52.4295 74.0555 51.3101Z" fill="black"/>
<path fill-rule="evenodd" clip-rule="evenodd" d="M74.0555 29.1303C72.8339 28.0109 70.9362 28.0937 69.8168 29.3153C64.6654 34.9367 61.414 37.1395 57.2954 37.2747C52.7793 37.4229 46.5849 35.1466 35.494 29.2483C25.3511 23.8542 17.4274 24.5362 11.5643 27.4831C6.59377 29.9814 3.43003 33.9773 1.86504 35.954L1.86504 35.954L1.83965 35.986C1.6444 36.2326 1.48305 36.4363 1.34455 36.605C0.292933 37.8853 0.478342 39.7757 1.75868 40.8273C3.03901 41.879 4.92944 41.6935 5.98106 40.4132C6.15984 40.1956 6.3531 39.9529 6.55365 39.701L6.55843 39.695C8.1409 37.7078 10.5464 34.71 14.2588 32.8441C18.2082 30.859 24.0716 29.9694 32.6767 34.5458C43.5809 40.3447 51.1427 43.4798 57.4922 43.2715C64.2396 43.0501 68.9632 39.1276 74.2404 33.3689C75.3598 32.1474 75.277 30.2497 74.0555 29.1303Z" fill="black"/>
<rect x="45.4409" y="46" width="6" height="24" transform="rotate(36.9921 45.4409 46)" fill="black"/>
<rect x="45.4409" width="6" height="24" transform="rotate(36.9921 45.4409 0)" fill="black"/>
</svg>
