<svg width="65" height="58" viewBox="0 0 65 58" fill="none" xmlns="http://www.w3.org/2000/svg">
<path d="M3 29H8.75274C12.3443 29 15.0082 32.6601 17.5129 35.2342C18.7682 36.5244 20.7815 37.5 24 37.5C33.5 37.5 32.5 29 32.5 29C32.5 23.5 32 20.5 41 20.5C44.5635 20.5 46.7161 21.8326 48.0164 23.4425C50.0984 26.0204 52.6863 29 56 29H62" stroke="#929292" stroke-width="5" stroke-linecap="round" stroke-linejoin="round"/>
<path d="M3 29H9.11329C12.5742 29 15.3091 31.9482 15.865 35.3642C16.5914 39.8273 18.5984 45 24 45C33.5 45 32.5 29 32.5 29C32.5 20 32 11 41 11C46.5279 11 48.6605 17.7906 49.4832 23.0301C49.9973 26.3037 52.6863 29 56 29H62" stroke="#525252" stroke-width="5" stroke-linecap="round" stroke-linejoin="round"/>
<path d="M3 29.5H9.26479C12.6689 29.5 15.4077 32.3288 15.5671 35.7293C15.9277 43.4212 17.5249 55.5 24 55.5C33.5 55.5 32.5 29.5 32.5 29.5C32.5 20.5 32 3 41 3C47.229 3 49.1469 15.6941 49.7373 23.5108C49.9869 26.8151 52.6863 29.5 56 29.5H62" stroke="black" stroke-width="5" stroke-linecap="round" stroke-linejoin="round"/>
</svg>
