<svg width="78" height="55" viewBox="0 0 78 55" fill="none" xmlns="http://www.w3.org/2000/svg">
<path d="M22.7143 11.6428C22.7143 11.6428 15.8572 17.7207 15.8572 28.3571C15.8572 38.9935 22.7143 45.0714 22.7143 45.0714" stroke="black" stroke-width="6" stroke-linecap="round"/>
<path d="M12.4286 3.07141C12.4286 3.07141 3.00001 11.9545 3.00001 27.5C3.00001 43.0454 12.4286 51.9286 12.4286 51.9286" stroke="black" stroke-width="6" stroke-linecap="round"/>
<circle cx="39" cy="29" r="12" stroke="black" stroke-width="6"/>
<path d="M55.2857 43.3572C55.2857 43.3572 62.1428 37.2793 62.1428 26.6429C62.1428 16.0065 55.2857 9.92861 55.2857 9.92861" stroke="black" stroke-width="6" stroke-linecap="round"/>
<path d="M65.5714 51.9286C65.5714 51.9286 75 43.0455 75 27.5C75 11.9546 65.5714 3.07144 65.5714 3.07144" stroke="black" stroke-width="6" stroke-linecap="round"/>
</svg>
