<svg width="66" height="58" viewBox="0 0 66 58" fill="none" xmlns="http://www.w3.org/2000/svg">
<path d="M3 30.1818H14.3276C14.7793 30.1818 15.175 30.4846 15.2929 30.9206L18.9503 44.4376C19.2337 45.4851 20.7485 45.3945 20.9051 44.3208L25.3633 13.7554C25.5271 12.6322 27.1389 12.6073 27.3374 13.7248L34.4235 53.6128C34.6235 54.7387 36.2513 54.7015 36.3996 53.5676L42.7762 4.8221C42.9308 3.6403 44.6517 3.67154 44.7633 4.85817L48.1667 41.0452C48.2665 42.1064 49.7357 42.2959 50.1016 41.2948L53.9228 30.8386C54.0669 30.4442 54.4421 30.1818 54.862 30.1818H63" stroke="black" stroke-width="6" stroke-linecap="round"/>
</svg>
