<svg width="77" height="81" viewBox="0 0 77 81" fill="none" xmlns="http://www.w3.org/2000/svg">
<path fill-rule="evenodd" clip-rule="evenodd" d="M65.8605 2.13166C66.2094 1.38027 65.8831 0.48834 65.1317 0.13948C64.3803 -0.20938 63.4884 0.116936 63.1395 0.868327C59.9091 7.82613 57.255 11.4301 52.7499 13.0233C49.4711 14.1829 45.0734 14.3376 38.5248 13.5548V1.00437e-07L16.1188 6.14356V12.0606C12.1099 13.0203 9.06336 14.9147 6.74566 17.1751C3.00091 20.8272 1.28987 25.3375 0.401898 27.6782C0.291826 27.9684 0.194401 28.2252 0.107318 28.4429C-0.200353 29.2121 0.173771 30.085 0.942946 30.3927C1.71212 30.7004 2.58508 30.3263 2.89275 29.5571C2.9931 29.3062 3.10052 29.0254 3.21755 28.7195L3.21768 28.7192L3.21771 28.7191C4.12359 26.3511 5.60537 22.4776 8.84024 19.3228C10.6158 17.5912 12.9622 16.0432 16.1188 15.1593V24.5743L16.1273 24.5912C15.092 23.8958 13.8458 23.4901 12.505 23.4901C8.91237 23.4901 6 26.4025 6 29.9951C6 33.5876 8.91237 36.5 12.505 36.5C15.9823 36.5 18.8224 33.7715 19.001 30.3386L19.0099 30.3564V29.9951V14.5779C21.6062 14.2438 24.6502 14.318 28.2291 14.9753C30.7612 15.4404 33.1023 15.8348 35.2723 16.1504V18.5782C34.3155 18.0247 33.2046 17.7079 32.0198 17.7079C28.4272 17.7079 25.5149 20.6203 25.5149 24.2129C25.5149 27.8055 28.4272 30.7178 32.0198 30.7178C35.6124 30.7178 38.5248 27.8055 38.5248 24.2129C38.5248 23.9449 38.5085 23.6807 38.4771 23.4212L38.5248 23.4901V16.5777C45.1094 17.3396 49.9469 17.1967 53.7502 15.8517C59.4951 13.8199 62.591 9.17386 65.8605 2.13166ZM35.2723 13.1163V7.9505L23.3114 11.4059C25.0078 11.468 26.8248 11.6672 28.771 12.0247C31.1259 12.4572 33.2859 12.8215 35.2723 13.1163ZM39 72V71.5V59.5249C42.4593 60.1568 45.5596 60.6549 48.3525 60.9976C48.123 61.792 48 62.6316 48 63.5C48 68.4706 52.0294 72.5 57 72.5C61.9706 72.5 66 68.4706 66 63.5C66 63.1292 65.9776 62.7637 65.934 62.4047L66 62.5V59.6133C70.6569 57.3025 73.4394 52.9234 76.3605 46.6317C76.7094 45.8803 76.3831 44.9883 75.6317 44.6395C74.8803 44.2906 73.9884 44.6169 73.6395 45.3683C71.1254 50.7834 68.9603 54.167 66 56.1524V34.7258C68.4721 32.2683 70.3846 28.8875 72.3605 24.6317C72.7094 23.8803 72.3831 22.9883 71.6317 22.6395C70.8803 22.2906 69.9884 22.6169 69.6395 23.3683C68.3869 26.0663 67.2209 28.2601 66 30.0278V30L44.2614 35.9606C41.6235 35.6249 38.6476 35.1449 35.271 34.5247C24.4 32.528 17.56 35.4675 13.2457 39.6751C9.50091 43.3271 7.78987 47.8375 6.9019 50.1782C6.79183 50.4684 6.6944 50.7252 6.60732 50.9429C6.29965 51.7121 6.67377 52.585 7.44295 52.8927C8.21212 53.2004 9.08508 52.8263 9.39275 52.0571C9.49306 51.8063 9.60043 51.5256 9.71741 51.2198L9.71749 51.2196L9.71771 51.2191C10.6236 48.8511 12.1054 44.9776 15.3402 41.8228C18.8878 38.363 24.7145 35.6359 34.7291 37.4753C35.558 37.6276 36.3665 37.7723 37.1551 37.9091L35 38.5V55.9706C26.5617 55.3627 20.9651 58.0477 17.2457 61.6751C13.5009 65.3271 11.7899 69.8375 10.9019 72.1782C10.7918 72.4684 10.6944 72.7252 10.6073 72.9429C10.2996 73.7121 10.6738 74.585 11.4429 74.8927C12.2121 75.2004 13.0851 74.8263 13.3927 74.0571C13.4931 73.8063 13.6005 73.5255 13.7175 73.2196L13.7177 73.2191C14.6236 70.8511 16.1054 66.9776 19.3402 63.8228C22.4225 60.8168 27.2251 58.364 35 58.9785V64L35.0117 64.0234C33.5793 63.0613 31.8552 62.5 30 62.5C25.0294 62.5 21 66.5294 21 71.5C21 76.4706 25.0294 80.5 30 80.5C34.8111 80.5 38.7405 76.7249 38.9877 71.9753L39 72ZM39 56.4758C39.0901 56.4917 39.1804 56.508 39.271 56.5247C43.3071 57.266 46.7708 57.807 49.7689 58.1408C51.4089 55.9316 54.0373 54.5 57 54.5C58.6393 54.5 60.1762 54.9383 61.5 55.704V41L39 47.5V56.4758Z" fill="black"/>
</svg>
