<svg width="76" height="46" viewBox="0 0 76 46" fill="none" xmlns="http://www.w3.org/2000/svg">
<path fill-rule="evenodd" clip-rule="evenodd" d="M74.0555 4.71808C72.8339 3.59869 70.9362 3.68149 69.8168 4.90302C64.6654 10.5245 61.414 12.7273 57.2954 12.8625C52.7793 13.0107 46.5849 10.7344 35.494 4.83607C25.3511 -0.55805 17.4274 0.12393 11.5643 3.0709C6.59377 5.56918 3.43003 9.56511 1.86504 11.5417L1.86504 11.5417L1.83965 11.5738C1.6444 11.8204 1.48305 12.0241 1.34455 12.1927C0.292934 13.4731 0.478342 15.3635 1.75868 16.4151C3.03901 17.4667 4.92944 17.2813 5.98106 16.001C6.15984 15.7833 6.3531 15.5406 6.55365 15.2888L6.55843 15.2828C8.14091 13.2956 10.5464 10.2978 14.2588 8.43183C18.2082 6.44677 24.0716 5.55721 32.6767 10.1335C43.5809 15.9325 51.1427 19.0676 57.4922 18.8592C64.2396 18.6378 68.9632 14.7153 74.2404 8.95669C75.3598 7.73517 75.277 5.83748 74.0555 4.71808Z" fill="black"/>
<path fill-rule="evenodd" clip-rule="evenodd" d="M74.0555 28.1303C72.8339 27.0109 70.9362 27.0937 69.8168 28.3153C64.6654 33.9367 61.414 36.1395 57.2954 36.2747C52.7793 36.4229 46.5849 34.1466 35.494 28.2483C25.3511 22.8542 17.4274 23.5362 11.5643 26.4831C6.59377 28.9814 3.43003 32.9773 1.86504 34.954L1.86504 34.954L1.83965 34.986C1.6444 35.2326 1.48305 35.4363 1.34455 35.605C0.292934 36.8853 0.478342 38.7757 1.75868 39.8273C3.03901 40.879 4.92944 40.6935 5.98106 39.4132C6.15984 39.1956 6.3531 38.9529 6.55365 38.701L6.55843 38.695C8.14091 36.7078 10.5464 33.71 14.2588 31.8441C18.2082 29.859 24.0716 28.9694 32.6767 33.5458C43.5809 39.3447 51.1427 42.4798 57.4922 42.2715C64.2396 42.0501 68.9632 38.1276 74.2404 32.3689C75.3598 31.1474 75.277 29.2497 74.0555 28.1303Z" fill="black"/>
<rect x="46.5784" y="23" width="6" height="24" transform="rotate(36.9921 46.5784 23)" fill="black"/>
</svg>
