<svg width="76" height="45" viewBox="0 0 76 45" fill="none" xmlns="http://www.w3.org/2000/svg">
<path fill-rule="evenodd" clip-rule="evenodd" d="M74.0555 6.71808C72.8339 5.59869 70.9362 5.68149 69.8168 6.90302C64.6654 12.5245 61.414 14.7273 57.2954 14.8625C52.7793 15.0107 46.5849 12.7344 35.494 6.83607C25.3511 1.44195 17.4274 2.12393 11.5643 5.0709C6.59377 7.56918 3.43003 11.5651 1.86504 13.5417L1.86504 13.5417L1.83965 13.5738C1.6444 13.8204 1.48305 14.0241 1.34455 14.1927C0.292934 15.4731 0.478342 17.3635 1.75868 18.4151C3.03901 19.4667 4.92944 19.2813 5.98106 18.001C6.15984 17.7833 6.3531 17.5406 6.55365 17.2888L6.55843 17.2828C8.14091 15.2956 10.5464 12.2978 14.2588 10.4318C18.2082 8.44677 24.0716 7.55721 32.6767 12.1335C43.5809 17.9325 51.1427 21.0676 57.4922 20.8592C64.2396 20.6378 68.9632 16.7153 74.2404 10.9567C75.3598 9.73517 75.277 7.83748 74.0555 6.71808Z" fill="black"/>
<path fill-rule="evenodd" clip-rule="evenodd" d="M74.0555 30.1303C72.8339 29.0109 70.9362 29.0937 69.8168 30.3153C64.6654 35.9367 61.414 38.1395 57.2954 38.2747C52.7793 38.4229 46.5849 36.1466 35.494 30.2483C25.3511 24.8542 17.4274 25.5362 11.5643 28.4831C6.59377 30.9814 3.43003 34.9773 1.86504 36.954L1.86504 36.954L1.83965 36.986C1.6444 37.2326 1.48305 37.4363 1.34455 37.605C0.292934 38.8853 0.478342 40.7757 1.75868 41.8273C3.03901 42.879 4.92944 42.6935 5.98106 41.4132C6.15984 41.1956 6.3531 40.9529 6.55365 40.701L6.55843 40.695C8.14091 38.7078 10.5464 35.71 14.2588 33.8441C18.2082 31.859 24.0716 30.9694 32.6767 35.5458C43.5809 41.3447 51.1427 44.4798 57.4922 44.2715C64.2396 44.0501 68.9632 40.1276 74.2404 34.3689C75.3598 33.1474 75.277 31.2497 74.0555 30.1303Z" fill="black"/>
<rect x="46.5784" y="0.440552" width="6" height="24" transform="rotate(36.9921 46.5784 0.440552)" fill="black"/>
</svg>
