<svg width="25" height="66" viewBox="0 0 25 66" fill="none" xmlns="http://www.w3.org/2000/svg">
<mask id="path-1-outside-1_287_493" maskUnits="userSpaceOnUse" x="0" y="0.166016" width="25" height="66" fill="black">
<rect fill="white" y="0.166016" width="25" height="66"/>
<path d="M13.3584 1.14628C12.4032 1.53575 11.5451 3.17479 11.0917 5.57654C10.7517 7.36163 10.606 15.6542 10.8489 19.4029L11.027 22.1454L8.71173 24.5147C5.32793 27.955 4.29173 29.302 2.94792 31.9309C0.0174488 37.6919 0.42221 43.6314 3.96792 47.1691C5.32792 48.516 6.34793 49.1327 8.4365 49.8629C9.87745 50.3498 10.1203 50.3985 12.4032 50.4309L14.8317 50.4634L15.1232 52.4594C15.3013 53.6928 15.4308 55.5103 15.447 57.2143C15.4794 59.7458 15.447 60.0542 15.107 60.898C14.2974 62.8941 12.5813 64.1436 10.6222 64.1599C8.95459 64.1599 7.72412 63.3972 7.20602 62.0502C6.96316 61.4498 6.96316 61.2064 7.12507 60.4599C7.36793 59.3564 7.61078 59.1292 8.27459 59.4051C8.98697 59.6972 10.3794 59.5349 11.027 59.0805C11.6098 58.6586 12.1603 57.62 12.1603 56.8897C12.1603 56.2081 11.6422 55.1533 11.1079 54.7314C9.22983 53.2546 6.26697 54.4717 5.00412 57.2305C4.6965 57.8958 4.63173 58.3015 4.63173 59.6485C4.63173 61.1577 4.66412 61.3362 5.14983 62.245C5.76507 63.4296 6.44507 64.095 7.62697 64.7116C8.4365 65.1173 8.67935 65.166 10.1527 65.166C11.707 65.166 11.8527 65.1336 12.8889 64.598C15.9165 63.0564 16.6774 60.2327 15.9003 53.4818C15.706 51.8752 15.5603 50.4796 15.5603 50.366C15.5603 50.2524 15.8679 50.0901 16.2565 49.9765C17.4546 49.652 19.2517 48.6783 20.3689 47.7371C22.9755 45.5301 24.2222 42.2358 23.6232 39.1362C22.7003 34.4625 18.7822 31.0708 14.427 31.1844L13.2127 31.2169L13.0022 28.7665L12.7755 26.316L14.3298 24.5634C17.0984 21.4638 18.7336 18.7213 19.4622 15.995C19.7536 14.9077 19.8184 14.2586 19.8184 11.9379C19.8184 9.47128 19.7698 9.01689 19.3813 7.55637C18.3451 3.62917 16.2889 0.967765 14.3136 1.00022C13.9736 1.00022 13.5527 1.06514 13.3584 1.14628ZM14.7994 3.41821C15.3174 3.84014 15.9651 5.17084 16.3213 6.61514C16.5155 7.41031 16.5965 8.384 16.5803 10.1529C16.5641 14.4371 15.787 16.6603 13.2289 19.695C12.6784 20.3603 12.5651 20.4415 12.4679 20.1818C12.2898 19.7274 12.306 11.516 12.4841 9.50373C12.7432 6.66382 13.2774 4.37566 13.8765 3.46689C14.1679 3.01251 14.2651 3.01251 14.7994 3.41821ZM11.7394 30.3568L11.8527 31.7362L10.9946 32.1419C9.78031 32.7099 8.12888 34.4138 7.49745 35.7121C6.25078 38.2923 6.5584 41.3919 8.20983 42.8524C8.97078 43.5178 9.10031 43.4691 8.69554 42.6415C8.4365 42.1059 8.35554 41.6678 8.35554 40.6616C8.37174 39.5257 8.4365 39.2336 8.90602 38.2761C9.50507 37.0752 10.5736 35.9555 11.6422 35.4037L12.3222 35.0629L12.387 35.42C12.4355 35.6309 12.5813 36.6371 12.727 37.6594C12.8727 38.6818 13.3584 41.6353 13.7955 44.2318C14.3298 47.4287 14.5241 48.9866 14.4108 49.1002C14.3136 49.1976 13.4879 49.2625 12.5165 49.2625C8.9384 49.2463 5.97554 47.7371 4.43745 45.1243C3.72507 43.9072 3.4984 42.8686 3.51459 40.9051C3.51459 39.2498 3.57935 38.8603 4.04888 37.4972C5.02031 34.6248 6.81745 31.9796 9.74792 29.1397L11.4317 27.5169L11.5289 28.2472C11.5936 28.6529 11.6908 29.5941 11.7394 30.3568ZM16.5803 35.2901C17.5194 35.7445 18.847 36.9941 19.6079 38.1463C19.8832 38.552 20.2555 39.3796 20.4336 39.9801C21.2108 42.4792 20.466 45.1243 18.4746 46.9581C17.6327 47.7371 15.4955 49.0191 15.3336 48.8406C15.2203 48.7108 13.6336 35.9393 13.6174 35.0792C13.6174 34.7059 13.6498 34.6897 14.6698 34.7708C15.3336 34.8358 16.046 35.0143 16.5803 35.2901Z"/>
</mask>
<path d="M13.3584 1.14628C12.4032 1.53575 11.5451 3.17479 11.0917 5.57654C10.7517 7.36163 10.606 15.6542 10.8489 19.4029L11.027 22.1454L8.71173 24.5147C5.32793 27.955 4.29173 29.302 2.94792 31.9309C0.0174488 37.6919 0.42221 43.6314 3.96792 47.1691C5.32792 48.516 6.34793 49.1327 8.4365 49.8629C9.87745 50.3498 10.1203 50.3985 12.4032 50.4309L14.8317 50.4634L15.1232 52.4594C15.3013 53.6928 15.4308 55.5103 15.447 57.2143C15.4794 59.7458 15.447 60.0542 15.107 60.898C14.2974 62.8941 12.5813 64.1436 10.6222 64.1599C8.95459 64.1599 7.72412 63.3972 7.20602 62.0502C6.96316 61.4498 6.96316 61.2064 7.12507 60.4599C7.36793 59.3564 7.61078 59.1292 8.27459 59.4051C8.98697 59.6972 10.3794 59.5349 11.027 59.0805C11.6098 58.6586 12.1603 57.62 12.1603 56.8897C12.1603 56.2081 11.6422 55.1533 11.1079 54.7314C9.22983 53.2546 6.26697 54.4717 5.00412 57.2305C4.6965 57.8958 4.63173 58.3015 4.63173 59.6485C4.63173 61.1577 4.66412 61.3362 5.14983 62.245C5.76507 63.4296 6.44507 64.095 7.62697 64.7116C8.4365 65.1173 8.67935 65.166 10.1527 65.166C11.707 65.166 11.8527 65.1336 12.8889 64.598C15.9165 63.0564 16.6774 60.2327 15.9003 53.4818C15.706 51.8752 15.5603 50.4796 15.5603 50.366C15.5603 50.2524 15.8679 50.0901 16.2565 49.9765C17.4546 49.652 19.2517 48.6783 20.3689 47.7371C22.9755 45.5301 24.2222 42.2358 23.6232 39.1362C22.7003 34.4625 18.7822 31.0708 14.427 31.1844L13.2127 31.2169L13.0022 28.7665L12.7755 26.316L14.3298 24.5634C17.0984 21.4638 18.7336 18.7213 19.4622 15.995C19.7536 14.9077 19.8184 14.2586 19.8184 11.9379C19.8184 9.47128 19.7698 9.01689 19.3813 7.55637C18.3451 3.62917 16.2889 0.967765 14.3136 1.00022C13.9736 1.00022 13.5527 1.06514 13.3584 1.14628ZM14.7994 3.41821C15.3174 3.84014 15.9651 5.17084 16.3213 6.61514C16.5155 7.41031 16.5965 8.384 16.5803 10.1529C16.5641 14.4371 15.787 16.6603 13.2289 19.695C12.6784 20.3603 12.5651 20.4415 12.4679 20.1818C12.2898 19.7274 12.306 11.516 12.4841 9.50373C12.7432 6.66382 13.2774 4.37566 13.8765 3.46689C14.1679 3.01251 14.2651 3.01251 14.7994 3.41821ZM11.7394 30.3568L11.8527 31.7362L10.9946 32.1419C9.78031 32.7099 8.12888 34.4138 7.49745 35.7121C6.25078 38.2923 6.5584 41.3919 8.20983 42.8524C8.97078 43.5178 9.10031 43.4691 8.69554 42.6415C8.4365 42.1059 8.35554 41.6678 8.35554 40.6616C8.37174 39.5257 8.4365 39.2336 8.90602 38.2761C9.50507 37.0752 10.5736 35.9555 11.6422 35.4037L12.3222 35.0629L12.387 35.42C12.4355 35.6309 12.5813 36.6371 12.727 37.6594C12.8727 38.6818 13.3584 41.6353 13.7955 44.2318C14.3298 47.4287 14.5241 48.9866 14.4108 49.1002C14.3136 49.1976 13.4879 49.2625 12.5165 49.2625C8.9384 49.2463 5.97554 47.7371 4.43745 45.1243C3.72507 43.9072 3.4984 42.8686 3.51459 40.9051C3.51459 39.2498 3.57935 38.8603 4.04888 37.4972C5.02031 34.6248 6.81745 31.9796 9.74792 29.1397L11.4317 27.5169L11.5289 28.2472C11.5936 28.6529 11.6908 29.5941 11.7394 30.3568ZM16.5803 35.2901C17.5194 35.7445 18.847 36.9941 19.6079 38.1463C19.8832 38.552 20.2555 39.3796 20.4336 39.9801C21.2108 42.4792 20.466 45.1243 18.4746 46.9581C17.6327 47.7371 15.4955 49.0191 15.3336 48.8406C15.2203 48.7108 13.6336 35.9393 13.6174 35.0792C13.6174 34.7059 13.6498 34.6897 14.6698 34.7708C15.3336 34.8358 16.046 35.0143 16.5803 35.2901Z" fill="black"/>
<path d="M13.3584 1.14628C12.4032 1.53575 11.5451 3.17479 11.0917 5.57654C10.7517 7.36163 10.606 15.6542 10.8489 19.4029L11.027 22.1454L8.71173 24.5147C5.32793 27.955 4.29173 29.302 2.94792 31.9309C0.0174488 37.6919 0.42221 43.6314 3.96792 47.1691C5.32792 48.516 6.34793 49.1327 8.4365 49.8629C9.87745 50.3498 10.1203 50.3985 12.4032 50.4309L14.8317 50.4634L15.1232 52.4594C15.3013 53.6928 15.4308 55.5103 15.447 57.2143C15.4794 59.7458 15.447 60.0542 15.107 60.898C14.2974 62.8941 12.5813 64.1436 10.6222 64.1599C8.95459 64.1599 7.72412 63.3972 7.20602 62.0502C6.96316 61.4498 6.96316 61.2064 7.12507 60.4599C7.36793 59.3564 7.61078 59.1292 8.27459 59.4051C8.98697 59.6972 10.3794 59.5349 11.027 59.0805C11.6098 58.6586 12.1603 57.62 12.1603 56.8897C12.1603 56.2081 11.6422 55.1533 11.1079 54.7314C9.22983 53.2546 6.26697 54.4717 5.00412 57.2305C4.6965 57.8958 4.63173 58.3015 4.63173 59.6485C4.63173 61.1577 4.66412 61.3362 5.14983 62.245C5.76507 63.4296 6.44507 64.095 7.62697 64.7116C8.4365 65.1173 8.67935 65.166 10.1527 65.166C11.707 65.166 11.8527 65.1336 12.8889 64.598C15.9165 63.0564 16.6774 60.2327 15.9003 53.4818C15.706 51.8752 15.5603 50.4796 15.5603 50.366C15.5603 50.2524 15.8679 50.0901 16.2565 49.9765C17.4546 49.652 19.2517 48.6783 20.3689 47.7371C22.9755 45.5301 24.2222 42.2358 23.6232 39.1362C22.7003 34.4625 18.7822 31.0708 14.427 31.1844L13.2127 31.2169L13.0022 28.7665L12.7755 26.316L14.3298 24.5634C17.0984 21.4638 18.7336 18.7213 19.4622 15.995C19.7536 14.9077 19.8184 14.2586 19.8184 11.9379C19.8184 9.47128 19.7698 9.01689 19.3813 7.55637C18.3451 3.62917 16.2889 0.967765 14.3136 1.00022C13.9736 1.00022 13.5527 1.06514 13.3584 1.14628ZM14.7994 3.41821C15.3174 3.84014 15.9651 5.17084 16.3213 6.61514C16.5155 7.41031 16.5965 8.384 16.5803 10.1529C16.5641 14.4371 15.787 16.6603 13.2289 19.695C12.6784 20.3603 12.5651 20.4415 12.4679 20.1818C12.2898 19.7274 12.306 11.516 12.4841 9.50373C12.7432 6.66382 13.2774 4.37566 13.8765 3.46689C14.1679 3.01251 14.2651 3.01251 14.7994 3.41821ZM11.7394 30.3568L11.8527 31.7362L10.9946 32.1419C9.78031 32.7099 8.12888 34.4138 7.49745 35.7121C6.25078 38.2923 6.5584 41.3919 8.20983 42.8524C8.97078 43.5178 9.10031 43.4691 8.69554 42.6415C8.4365 42.1059 8.35554 41.6678 8.35554 40.6616C8.37174 39.5257 8.4365 39.2336 8.90602 38.2761C9.50507 37.0752 10.5736 35.9555 11.6422 35.4037L12.3222 35.0629L12.387 35.42C12.4355 35.6309 12.5813 36.6371 12.727 37.6594C12.8727 38.6818 13.3584 41.6353 13.7955 44.2318C14.3298 47.4287 14.5241 48.9866 14.4108 49.1002C14.3136 49.1976 13.4879 49.2625 12.5165 49.2625C8.9384 49.2463 5.97554 47.7371 4.43745 45.1243C3.72507 43.9072 3.4984 42.8686 3.51459 40.9051C3.51459 39.2498 3.57935 38.8603 4.04888 37.4972C5.02031 34.6248 6.81745 31.9796 9.74792 29.1397L11.4317 27.5169L11.5289 28.2472C11.5936 28.6529 11.6908 29.5941 11.7394 30.3568ZM16.5803 35.2901C17.5194 35.7445 18.847 36.9941 19.6079 38.1463C19.8832 38.552 20.2555 39.3796 20.4336 39.9801C21.2108 42.4792 20.466 45.1243 18.4746 46.9581C17.6327 47.7371 15.4955 49.0191 15.3336 48.8406C15.2203 48.7108 13.6336 35.9393 13.6174 35.0792C13.6174 34.7059 13.6498 34.6897 14.6698 34.7708C15.3336 34.8358 16.046 35.0143 16.5803 35.2901Z" stroke="black" stroke-width="1.5" mask="url(#path-1-outside-1_287_493)"/>
</svg>
