<svg width="76" height="68" viewBox="0 0 76 68" fill="none" xmlns="http://www.w3.org/2000/svg">
<rect y="19" width="28" height="28" fill="black"/>
<path d="M3.67249 35.4923C2.78121 34.6971 2.78121 33.3029 3.67249 32.5077L31.6685 7.52777C32.9574 6.37766 35 7.2926 35 9.02008L35 58.9799C35 60.7074 32.9574 61.6223 31.6685 60.4722L3.67249 35.4923Z" fill="black"/>
<path d="M41 54C41 54 48.5 47 48.5 34.75C48.5 22.5 41 15.5 41 15.5" stroke="black" stroke-width="6" stroke-linecap="round"/>
<path d="M52 59C52 59 62 50.0909 62 34.5C62 18.9091 52 10 52 10" stroke="black" stroke-width="6" stroke-linecap="round"/>
<path d="M62 63C62 63 73 52.6364 73 34.5C73 16.3636 62 6 62 6" stroke="black" stroke-width="6" stroke-linecap="round"/>
</svg>
